<?xml version="1.0" encoding="utf-8"?>
<!-- Generator: Adobe Illustrator 27.6.1, SVG Export Plug-In . SVG Version: 6.00 Build 0)  -->
<svg version="1.1" id="Слой_1" xmlns="http://www.w3.org/2000/svg" xmlns:xlink="http://www.w3.org/1999/xlink" x="0px" y="0px"
	 viewBox="0 0 1080 1080" style="enable-background:new 0 0 1080 1080;" xml:space="preserve">
<style type="text/css">
	.st0{fill:#FFFFFF;}
</style>
<g>
	<rect x="321.7" y="67.6" class="st0" width="103.2" height="434.2"/>
	<circle class="st0" cx="373.3" cy="629.9" r="51.6"/>
	<path class="st0" d="M758.3,358.7c0,79-64.1,143-143,143c-61.5,0-113.9-38.8-134.1-93.4c-5.7-15.5-8.9-32.2-8.9-49.6
		c0-19.7,4-38.4,11.1-55.5c0,0,0-0.1,0.1-0.2l4.3-9.2L593.9,67.5H697L567.6,343.4c-0.2,0.6-0.4,1.2-0.6,1.8
		c-2.2,5.7-3.4,12-3.4,18.4c0,28.5,23.1,51.6,51.6,51.6c19.2,0,36-10.6,44.8-26.3l0.4,0.1l59.8-127.5
		C743.9,287.1,758.3,321.1,758.3,358.7z"/>
	<circle class="st0" cx="373.3" cy="809.7" r="51.6"/>
	<path class="st0" d="M758.3,721.3c0,19.7-4,38.4-11.1,55.5c0,0,0,0.1-0.1,0.2l-4.3,9.2l-106.1,226.2H536.1l123.7-263.9l3.6-7.7
		c0.2-0.4,0.4-0.6,0.4-0.9c2-5.4,3.1-11.1,3.1-17.2c0-28.5-23.1-51.6-51.5-51.6c-18.9,0-35.3,10.1-44.4,25.2c-1.2,2-2.3,4.1-3.3,6.2
		l-55.4,118c-24.8-25.6-40-60.5-40-99.2c0-79,64.1-143,143-143c61.5,0,113.9,38.8,134.1,93.4C755.1,687.2,758.3,703.9,758.3,721.3z"
		/>
</g>
</svg>
